<?xml version="1.0" encoding="UTF-8" standalone="no"?>
<!DOCTYPE svg PUBLIC "-//W3C//DTD SVG 1.1//EN" "http://www.w3.org/Graphics/SVG/1.1/DTD/svg11.dtd">
<svg width="100%" height="100%" viewBox="0 0 1862 2039" version="1.1" xmlns="http://www.w3.org/2000/svg" xmlns:xlink="http://www.w3.org/1999/xlink" xml:space="preserve" xmlns:serif="http://www.serif.com/" style="fill-rule:evenodd;clip-rule:evenodd;stroke-linejoin:round;stroke-miterlimit:2;">
    <g transform="matrix(1,0,0,1,-110.229,-384.032)">
        <g transform="matrix(1,0,0,1,80.1095,138.236)">
            <g transform="matrix(1.53909,0,0,1.53478,-1048.37,422.257)">
                <path d="M1102.56,414.901C1095.11,457.861 1081.56,453.155 1066.06,463.258C1056.49,469.498 1020.89,465.432 1012.74,463.967C1004.58,462.503 996.035,458.635 987.735,455.217L993.386,421.901C1002.27,425.905 1028.59,432.119 1033.15,432.262C1051.2,432.83 1056.92,425.267 1058.32,418.614C1059.72,411.961 1056.8,406.216 1045.22,397.85C1033.43,389.327 989.124,365.467 1001.16,329.931C1006.01,315.594 1014.58,308.467 1025.91,300.168C1057.79,276.819 1108.71,301.83 1113.4,303.433L1097.64,333.837C1090.14,328.717 1085.23,326.432 1079.45,323.405C1072.79,319.915 1066.68,320.011 1059.1,320.862C1042.09,322.772 1040.38,345.499 1043.69,349.915C1048.25,355.975 1065.37,370.229 1073.76,376.261C1093.67,390.561 1103.77,407.863 1102.56,414.901Z" style="fill-rule:nonzero;"/>
            </g>
            <g transform="matrix(1.46752,-0.577746,0.600276,1.52475,-1820.56,1314.07)">
                <path d="M1580.44,435.332C1571.47,420.69 1093.23,420.193 1083.1,435.332C1070.48,454.178 1072.07,1023.26 1083.1,1046.16C1089.35,1059.16 1562.35,1058.66 1580.44,1046.16C1590.72,1039.07 1585.92,444.268 1580.44,435.332Z" style="fill:rgb(246,197,123);"/>
            </g>
            <g transform="matrix(1.36254,0,0,1.35872,-16.981,-42.6387)">
                <g transform="matrix(1,0,0,1,-71.5164,-24.9526)">
                    <path d="M289.811,493.775L244.401,493.775L240.473,275.182L185,275.028L185,237.236L346.719,237.236L346.719,275.028L284.344,274.191L289.811,493.775Z" style="fill-rule:nonzero;"/>
                </g>
                <g transform="matrix(1,0,0,1,-73.0483,-1.51086)">
                    <path d="M420.733,214.741L420.417,303.676C420.417,311.782 420.149,319.497 419.612,326.821C419.075,334.145 418.66,339.321 418.367,342.348L420.71,342.348C424.226,336.684 428.401,332.094 433.235,328.579C438.069,325.063 443.415,322.475 449.275,320.815C455.134,319.155 461.433,318.325 468.171,318.325C479.988,318.325 490.29,320.4 499.079,324.55C507.869,328.701 514.704,335.195 519.587,344.033C524.47,352.871 526.912,364.321 526.912,378.383L528.716,463.339L484.038,463.339L489.064,400.866C489.064,389.147 486.503,368.678 482.206,362.721C477.909,356.764 471.269,353.785 462.284,353.785C453.3,353.785 439.802,356.142 434.626,360.293C429.451,364.443 425.788,370.546 423.64,378.603C421.492,386.66 420.417,396.499 420.417,408.12L422.222,463.339L377.544,463.339L376.056,214.741L420.733,214.741Z" style="fill-rule:nonzero;"/>
                </g>
                <g transform="matrix(1,0,0,1,-90.1046,-3.05209)">
                    <path d="M642.056,296.389C657.193,296.389 670.23,299.295 681.167,305.105C692.105,310.916 700.552,319.338 706.509,330.374C712.466,341.409 711.384,348.161 711.384,364.079L711.384,385.759L602.188,390.506C602.677,403.103 604.892,413.081 611.972,420.258C619.052,427.436 645.105,436.835 653.991,435.741C673.388,433.353 692.525,424.366 701.705,420.069L706.216,454.592C698.111,458.596 689.639,461.526 680.801,463.381C671.963,465.237 661.245,466.165 648.648,466.165C632.241,466.165 615.358,458.795 602.712,452.74C590.065,446.685 580.153,437.457 572.976,425.054C565.798,412.652 564.566,401.37 564.566,382.522C564.566,363.381 567.813,347.439 574.307,334.695C580.801,321.951 589.859,312.38 601.48,305.984C613.101,299.588 626.626,296.389 642.056,296.389ZM643.204,323.238C634.512,323.238 627.31,326.021 621.597,331.588C615.884,337.154 611.734,350.833 610.855,362.747L673.55,362.747C673.452,356.106 677.254,349.019 674.959,343.843C672.664,338.667 669.246,334.566 664.705,331.539C660.164,328.511 650.235,323.238 643.204,323.238Z" style="fill-rule:nonzero;"/>
                </g>
            </g>
            <g transform="matrix(1.53909,0,0,1.53478,-1003.23,404.11)">
                <g transform="matrix(0.999964,0,0.000633457,1.00004,-75.6674,7.77978)">
                    <path d="M1739.66,296.389C1754.8,296.389 1767.84,299.295 1778.78,305.105C1789.71,310.916 1798.16,319.338 1804.12,330.374C1810.07,341.409 1813.05,354.885 1813.05,370.803L1813.05,392.483L1707.44,392.483C1707.92,405.081 1711.71,414.968 1718.79,422.146C1725.87,429.324 1744.56,435.228 1753.45,436.183C1766.31,437.563 1802.85,435.688 1802.85,435.688L1800.82,463.635C1800.82,463.635 1766.57,469.204 1753.97,469.204C1737.57,469.204 1715.32,463.137 1702.68,457.083C1690.03,451.028 1680.12,441.799 1672.94,429.397C1665.76,416.995 1665.13,403.876 1665.13,385.028C1665.13,365.888 1672.39,348.548 1678.89,335.804C1685.38,323.06 1690.19,315.396 1701.82,308.999C1713.44,302.603 1724.23,296.389 1739.66,296.389ZM1739.96,328.176C1731.27,328.176 1724.06,330.96 1718.35,336.526C1712.64,342.092 1709.34,350.833 1708.46,362.747L1771.16,362.747C1771.06,356.106 1769.86,350.198 1767.57,345.022C1765.27,339.846 1761.86,335.745 1757.32,332.717C1752.77,329.69 1746.99,328.176 1739.96,328.176Z" style="fill-rule:nonzero;"/>
                </g>
                <g transform="matrix(1,0,0,1,-41.2825,12.2853)">
                    <path d="M1213.35,466.165C1197.13,466.165 1183.32,463.211 1171.89,457.302C1160.46,451.394 1151.77,442.239 1145.82,429.837C1139.86,417.434 1136.88,401.565 1136.88,382.229C1136.88,362.21 1140.27,345.877 1147.06,333.23C1153.85,320.584 1163.27,311.282 1175.33,305.325C1187.39,299.368 1201.38,296.389 1217.3,296.389C1228.63,296.389 1238.42,297.488 1246.67,299.685C1254.92,301.882 1262.12,304.495 1268.28,307.522L1255.09,342.092C1248.06,339.26 1241.52,336.941 1235.46,335.134C1229.41,333.328 1195.2,321.768 1174.37,353.738C1170.13,360.232 1170.56,370.242 1170.56,381.277C1170.56,392.117 1171.92,401.101 1174.66,408.23C1177.39,415.359 1185.44,424.4 1190.46,428.098C1210.17,442.643 1256.31,420.266 1263.15,415.774L1263.15,454.006C1256.31,458.303 1249.16,461.404 1241.69,463.308C1234.22,465.213 1224.77,466.165 1213.35,466.165Z" style="fill-rule:nonzero;"/>
                </g>
                <g transform="matrix(1,0,0,1,-37.8478,6.59466)">
                    <path d="M957.652,476.593L834.312,476.593L833.218,249.075L956.558,249.075L956.558,286.282L878.628,286.282L874.034,347.194L950.461,349.485L949.565,381.799L872.566,383.868L873.464,433.953L968.46,430.2L957.652,476.593Z" style="fill-rule:nonzero;"/>
                </g>
            </g>
            <g transform="matrix(1.44843,0,0,1.44437,-145.261,598.325)">
                <g transform="matrix(1,0,0,1,-6.40211,11.5562)">
                    <path d="M330.751,778.261L201.721,780.736L201.775,556.236L330.484,549.075L330.484,586.282L240.472,590.564L243.513,643.824L313.693,643.344L313.693,680.551L241.959,682.72L242.386,738.298L328.243,737.421L330.751,778.261Z" style="fill-rule:nonzero;"/>
                </g>
                <g transform="matrix(1,0,0,1,-14.4301,23.7087)">
                    <path d="M459.738,595.825C477.218,595.825 491.281,600.586 501.925,610.108C512.57,619.629 522.818,635.452 522.818,656.448C520.016,719.705 522.406,731.708 522.818,763.235L478.14,763.235L478.14,667.581C478.14,655.862 476.016,647.024 471.768,641.067C467.52,635.11 455.929,631.568 446.847,631.568C433.175,631.568 428.775,636.77 423.794,646.047C418.814,655.325 416.323,668.704 416.323,686.184L416.323,763.235L376.315,763.453L371.646,599.465L405.777,599.465L407.235,638.16L414.273,620.413C417.788,614.749 422.158,610.159 427.383,606.643C432.608,603.128 438.418,600.54 444.815,598.879C451.211,597.219 452.902,595.825 459.738,595.825Z" style="fill-rule:nonzero;"/>
                </g>
                <g transform="matrix(1,0,0,1,-21.6236,23.9267)">
                    <path d="M607.779,763.235L545.376,599.465L592.105,599.465L623.745,692.776C625.503,698.245 626.895,704.006 627.92,710.061C628.946,716.116 619.782,715.788 620.905,709.928C622.028,704.069 623.517,698.405 625.372,692.936L656.867,599.625L702.908,599.565L638.923,761.924L607.779,763.235Z" style="fill-rule:nonzero;"/>
                </g>
                <g transform="matrix(1,0,0,1,-47.6403,22.1606)">
                    <path d="M800.879,596.344C814.145,596.344 824.096,595.191 834.136,599.654C835.552,600.283 836.936,600.957 838.288,601.675C849.226,607.486 857.673,615.908 863.63,626.944C869.587,637.979 872.566,651.455 872.566,667.373L872.566,689.053L765.469,690.987C765.957,703.585 769.742,713.473 776.822,720.65C783.902,727.828 803.042,732.913 815.64,732.913C826.089,732.913 835.659,731.838 844.351,729.69C853.042,727.542 861.978,724.319 871.157,720.022L871.157,754.592C863.052,758.596 854.58,761.526 845.742,763.381C836.905,765.237 826.187,766.165 813.589,766.165C797.183,766.165 782.657,763.137 770.01,757.083C757.364,751.028 747.451,741.799 740.274,729.397C733.096,716.995 729.507,701.37 729.507,682.522C729.507,663.381 741.629,636.028 750.753,625.013C763.731,609.344 785.449,596.344 800.879,596.344ZM805.709,627.476C797.018,627.476 787.409,628.051 781.696,633.617C775.984,639.184 775.094,650.132 774.215,662.047L836.91,662.047C836.813,655.406 835.616,649.498 833.322,644.322C831.027,639.146 827.609,635.045 823.068,632.017C818.527,628.99 812.74,627.476 805.709,627.476Z" style="fill-rule:nonzero;"/>
                </g>
                <g transform="matrix(1,0,0,1,-64.5153,26.5452)">
                    <path d="M960.833,776.059L916.155,776.059L918.029,525.953L956.592,524.779L960.833,776.059Z" style="fill-rule:nonzero;"/>
                </g>
                <g transform="matrix(1,0,0,1,-76.5241,28.7012)">
                    <path d="M1157.1,681.057C1157.1,694.729 1155.26,706.838 1151.6,717.385C1147.94,727.932 1142.62,736.843 1135.63,744.119C1128.65,751.394 1120.25,756.887 1110.44,760.598C1100.62,764.309 1089.57,766.165 1077.26,766.165C1065.74,766.165 1059.47,762.396 1049.85,758.685C1040.23,754.974 1031.88,749.481 1024.8,742.206C1017.72,734.93 1012.25,726.019 1008.4,715.472C1004.54,704.925 1001.72,694.859 1001.72,681.187C1001.72,663.023 1004.94,647.642 1011.39,635.045C1017.83,622.447 1024.34,606.922 1036.26,600.379C1048.17,593.836 1062.38,590.564 1078.89,590.564C1094.22,590.564 1105.03,592.433 1116.9,598.976C1128.76,605.519 1138.09,615.089 1144.88,627.687C1151.66,640.284 1157.1,662.893 1157.1,681.057ZM1038.95,677.417C1038.95,688.159 1042.01,712.86 1053.38,724.545C1063.02,734.445 1090.61,733.124 1095.53,729.4C1105.25,722.043 1112.9,700.688 1115.2,686.431C1116.42,678.853 1118.71,640.762 1101.52,626.86C1073.73,604.384 1058.43,624.779 1053.11,632.885C1047.79,640.99 1038.95,661.206 1038.95,677.417Z" style="fill-rule:nonzero;"/>
                </g>
                <g transform="matrix(1,0,0,1,-90.0959,34.707)">
                    <path d="M1285.12,596.389C1303.58,596.389 1318.5,603.567 1329.87,617.922C1341.25,632.278 1346.94,653.323 1346.94,681.057C1346.94,699.612 1344.25,715.213 1338.88,727.859C1333.51,740.505 1326.09,750.051 1316.62,756.497C1307.14,762.942 1296.26,766.165 1283.95,766.165C1276.04,766.165 1269.25,765.164 1263.59,763.162C1257.92,761.16 1235.57,751.106 1235.57,751.106C1236.35,755.012 1235.62,777.107 1235.62,781.013L1235.37,865.147L1199.5,866.352L1193.02,598.995L1230.34,599.465L1236.64,620.706L1238.69,620.706C1241.62,616.311 1245.18,612.258 1249.38,608.547C1253.58,604.837 1258.63,601.882 1264.54,599.685C1270.45,597.488 1277.31,596.389 1285.12,596.389ZM1270.77,632.131C1262.95,632.131 1256.75,633.743 1252.16,636.965C1247.57,640.188 1244.23,645.022 1242.13,651.467C1240.03,657.913 1238.88,666.067 1238.69,675.93L1238.69,680.764C1238.69,691.311 1239.69,700.247 1241.69,707.571C1243.69,714.895 1247.06,720.462 1251.8,724.27C1256.53,728.079 1263.05,729.983 1271.35,729.983C1278.19,729.983 1283.8,728.079 1288.2,724.27C1292.59,720.462 1295.89,714.871 1298.09,707.498C1300.28,700.125 1301.38,691.116 1301.38,680.471C1301.38,664.456 1298.89,652.395 1293.91,644.29C1288.93,636.184 1281.22,632.131 1270.77,632.131Z" style="fill-rule:nonzero;"/>
                </g>
                <g transform="matrix(1,0,0,1,-110.316,19.9895)">
                    <path d="M1437.41,600.912C1453.9,597.556 1467.78,599.525 1478.72,605.336C1489.66,611.147 1501.9,616.914 1507.86,627.949C1513.82,638.984 1516.93,651.9 1516.93,667.818L1516.93,689.497L1419.16,692.483C1419.64,705.081 1423.43,714.968 1430.51,722.146C1437.59,729.324 1442.85,735.409 1455.44,735.409C1465.89,735.409 1475.46,734.335 1484.16,732.186C1492.85,730.038 1506.36,724.319 1515.54,720.022L1515.54,754.592C1507.44,758.596 1498.96,761.526 1490.13,763.381C1481.29,765.237 1470.57,766.165 1457.97,766.165C1441.57,766.165 1433.05,762.513 1420.4,756.458C1407.75,750.404 1396.89,740.465 1389.71,728.062C1382.54,715.66 1378.95,700.035 1378.95,681.187C1378.95,662.047 1382.19,646.104 1388.69,633.36C1395.18,620.616 1422.29,603.989 1437.41,600.912ZM1452.31,626.677C1443.62,626.677 1436.42,629.46 1430.71,635.027C1424.99,640.593 1421.06,650.833 1420.18,662.747L1482.88,662.747C1482.78,656.106 1481.58,650.198 1479.29,645.022C1476.99,639.846 1473.57,635.745 1469.03,632.717C1464.49,629.69 1459.35,626.677 1452.31,626.677Z" style="fill-rule:nonzero;"/>
                </g>
            </g>
        </g>
        <g transform="matrix(0.736456,0.110279,-0.130274,0.869984,175.291,-26.3939)">
            <path d="M1605.91,390.665C1706.27,390.665 1760.82,446.371 1797.87,527.833C1811.5,557.788 1814.86,593.689 1814.86,629.596C1814.86,763.153 1735.4,868.007 1598.14,868.007C1460.88,868.007 1372.84,757.878 1372.84,624.322C1372.84,552.074 1407.07,495.304 1458.73,450.948C1502.58,413.309 1542.9,390.665 1605.91,390.665ZM1593.35,435.526C1653.66,433.255 1707.79,463.04 1739.14,513.722C1756.89,542.398 1753.41,594.169 1753.41,627.4C1753.41,719.36 1692.65,792.639 1598.14,792.639C1503.63,792.639 1431.23,718.152 1431.23,626.192C1431.23,582.591 1429.78,546.805 1457.99,517.096C1489.29,484.144 1523.24,438.167 1593.35,435.526Z" style="fill:rgb(221,228,233);"/>
        </g>
        <g transform="matrix(0.665184,0.0996064,-0.105225,0.702706,273.4,33.3465)">
            <path d="M1882.05,688.256C1878.11,674.536 1328.92,677.207 1328.54,698.401C1324.81,906.156 1315.34,1184.74 1321.02,1196.52C1341.55,1239.08 1908.62,1215.24 1940.18,1182.99C1950.32,1172.63 1885,698.532 1882.05,688.256Z" style="fill:rgb(187,206,220);"/>
        </g>
        <g transform="matrix(1.76156,0,0,1.75843,-1315.86,440.611)">
            <path d="M1403.49,341.848L1432.24,345.808C1432.24,345.808 1432.23,351.147 1432.23,354.104L1432.23,463.235L1405.09,463.235L1403.63,437.324C1403.63,437.324 1396.1,455.471 1380.98,462.942C1370.21,468.261 1350.02,466.165 1340.93,466.165C1331.27,466.165 1325.48,461.252 1321.07,457.13C1314.84,451.318 1305.58,430.471 1304.77,410.91C1304.47,403.745 1305.32,389.488 1308.73,377.712C1314.67,357.209 1326.41,349.809 1332.77,343.847C1343,334.253 1368.21,333.861 1379.01,335.406C1387.93,336.682 1401.99,349.616 1401.99,349.616L1403.49,341.848ZM1392.32,375.142C1388.79,363.469 1373.73,358.002 1368.03,358.813C1344.29,362.186 1341.06,367.065 1334.93,387.482C1329.2,406.564 1333.22,427.981 1339.77,434.528C1351.55,446.293 1362.31,442.969 1370.73,440.82C1375.65,439.565 1389.27,429.841 1393.7,418.768C1397.76,408.607 1394.44,382.163 1392.32,375.142Z" style="fill-rule:nonzero;"/>
        </g>
        <g transform="matrix(1.53909,0,0,1.53478,-1028.31,570.52)">
            <path d="M1573.4,296.389C1591.86,296.389 1610.41,302.065 1619.36,318.046C1629.33,335.855 1634.34,354.785 1634.34,382.519C1634.34,401.074 1625.45,428.982 1609.44,447.108C1601.85,455.695 1584.54,466.165 1572.23,466.165C1564.32,466.165 1557.53,465.164 1551.87,463.162C1546.21,461.16 1541.37,458.572 1537.37,455.398C1533.37,452.224 1529.9,448.831 1526.97,445.217L1524.62,445.217C1525.41,449.124 1525.99,453.128 1526.38,457.229C1526.77,461.331 1526.97,465.335 1526.97,469.241L1526.58,559.562L1490.07,560.81C1490.07,560.81 1488.26,455.784 1488.26,412.155C1488.26,374.495 1488.07,299.358 1488.07,299.358L1518.62,299.465L1524.92,320.706L1526.97,320.706C1529.9,316.311 1533.46,312.258 1537.66,308.547C1541.86,304.837 1546.91,301.882 1552.82,299.685C1558.73,297.488 1565.59,296.389 1573.4,296.389ZM1565.55,328.298C1557.74,328.298 1545.03,333.743 1540.44,336.965C1535.86,340.188 1532.51,345.022 1530.41,351.467C1528.31,357.913 1527.16,366.067 1526.97,375.93L1526.97,380.764C1526.97,391.311 1527.97,400.247 1529.97,407.571C1531.97,414.895 1535.34,420.462 1540.08,424.27C1544.82,428.079 1551.33,429.983 1559.63,429.983C1566.47,429.983 1571.93,430.345 1576.88,427.284C1583.13,423.412 1591.87,415.081 1594.06,407.708C1596.26,400.335 1596.17,387.283 1596.17,376.638C1596.17,360.623 1593.68,348.562 1588.7,340.457C1583.72,332.351 1576,328.298 1565.55,328.298Z" style="fill-rule:nonzero;"/>
        </g>
    </g>
</svg>
