<?xml version="1.0" encoding="UTF-8" standalone="no"?>
<!DOCTYPE svg PUBLIC "-//W3C//DTD SVG 1.1//EN" "http://www.w3.org/Graphics/SVG/1.1/DTD/svg11.dtd">
<svg width="100%" height="100%" viewBox="0 0 524 89" version="1.1" xmlns="http://www.w3.org/2000/svg" xmlns:xlink="http://www.w3.org/1999/xlink" xml:space="preserve" xmlns:serif="http://www.serif.com/" style="fill-rule:evenodd;clip-rule:evenodd;stroke-linejoin:round;stroke-miterlimit:2;">
    <g transform="matrix(1,0,0,1,-43.3329,-53.8304)">
        <g transform="matrix(1.25562,0,-2.77556e-17,0.184401,-1291.26,-128.749)">
            <g>
                <g transform="matrix(1,0,0,1,-10.8736,179.4)">
                    <path d="M1096.67,896.693L1095.99,1199.77L1089.19,1199.77L1089.87,896.693L1073.77,896.693L1073.77,853.201L1114.56,853.201L1114.56,896.693L1096.67,896.693Z" style="fill-rule:nonzero;"/>
                </g>
                <g transform="matrix(0.99998,-0.0435162,0.000938565,0.99998,-13.4977,245.321)">
                    <path d="M1112.18,793.498L1118.75,793.498L1118.37,982.486C1120.7,968.187 1123.28,961.038 1126.1,961.038C1129.31,961.038 1133.22,967.618 1135.14,981.785C1136.78,994.098 1138.17,1013.78 1138.17,1040.79L1137.93,1153.69L1138.11,1183.11L1131.54,1183.11L1131.36,1151.14L1131.6,1044.96C1131.6,1029.47 1131.26,1017.91 1130.39,1011.3C1128.96,1000.36 1126.2,995.939 1124.44,997.961C1122.17,1000.56 1120.67,1006.19 1119.74,1015.85C1118.83,1025.65 1118.37,1042.46 1118.37,1066.29L1118.55,1171.65L1111.99,1171.65L1112.18,793.498Z" style="fill-rule:nonzero;"/>
                </g>
                <g transform="matrix(0.993481,-0.77622,0.0167416,0.993481,-24.6223,1116.27)">
                    <path d="M1170.43,1073.64L1150.07,1073.64C1150.25,1089.53 1151.01,1102.17 1152.35,1111.57C1153.69,1120.84 1155.41,1125.47 1157.51,1125.47C1159.14,1125.47 1160.49,1122.83 1161.56,1117.53C1162.61,1112.23 1163.81,1102.44 1165.15,1088.14L1170.69,1109.19C1169.84,1119.12 1168.93,1127.62 1167.98,1134.71C1167.03,1141.79 1166.01,1147.62 1164.92,1152.18C1163.83,1156.75 1162.65,1160.1 1161.39,1162.21C1160.12,1164.33 1158.75,1165.39 1157.28,1165.39C1153.04,1165.39 1149.63,1156.12 1147.07,1137.59C1144.5,1118.92 1143.22,1094.16 1143.22,1063.31C1143.22,1032.73 1144.46,1007.97 1146.95,989.039C1149.46,970.372 1152.79,961.038 1156.93,961.038C1161.11,961.038 1164.41,970.107 1166.84,988.245C1169.25,1006.25 1170.46,1031.21 1170.46,1063.12L1170.43,1073.64ZM1163.69,1037.1C1162.78,1013.27 1160.57,1001.35 1157.07,1001.35C1156.28,1001.35 1155.53,1002.18 1154.83,1003.84C1154.13,1005.49 1153.49,1007.87 1152.92,1010.98C1152.34,1014.1 1151.85,1017.84 1151.44,1022.21C1151.04,1026.57 1150.72,1031.54 1150.51,1037.1L1163.69,1037.1Z" style="fill-rule:nonzero;"/>
                </g>
            </g>
            <g transform="matrix(1,0,0,1,2.36119,50.5708)">
                <g transform="matrix(1,0,0,1,-16.2938,153.762)">
                    <path d="M1222.14,896.693L1204.09,896.693L1204.09,970.372L1221.62,970.372L1221.62,1013.86L1204.09,1013.86L1204.09,1116.34L1222.14,1116.34L1222.14,1159.83L1197.29,1159.83L1197.29,853.201L1222.14,853.201L1222.14,896.693Z" style="fill-rule:nonzero;"/>
                </g>
                <g transform="matrix(0.978055,1.41866,-0.0305978,0.978055,39.1123,-1610.95)">
                    <path d="M1246.32,999.366L1240.89,1019.03C1240.04,1007.11 1238.98,1001.15 1237.71,1001.15C1237.11,1001.15 1236.6,1002.51 1236.17,1005.23C1235.74,1007.94 1235.53,1011.41 1235.53,1015.65C1235.53,1023.07 1236.79,1030.41 1239.32,1037.69C1242.8,1047.89 1245.14,1057.29 1246.35,1065.9C1247.55,1074.5 1248.16,1086.09 1248.16,1100.65C1248.16,1119.32 1247.15,1134.94 1245.12,1147.52C1243.16,1159.43 1240.79,1165.39 1238.01,1165.39C1233.24,1165.39 1229.87,1149.57 1227.89,1117.93L1233.49,1100.25C1234.26,1109.52 1234.86,1115.41 1235.27,1117.93C1236.06,1122.96 1237.02,1125.47 1238.12,1125.47C1240.34,1125.47 1241.45,1118.59 1241.45,1104.82C1241.45,1096.88 1240.59,1089.46 1238.88,1082.58C1238.22,1080.33 1237.56,1078.14 1236.9,1076.02C1236.24,1073.91 1235.57,1071.72 1234.89,1069.47C1232.98,1063.12 1231.64,1056.76 1230.86,1050.4C1229.87,1042.33 1229.37,1031.94 1229.37,1019.23C1229.37,1002.41 1230.22,988.51 1231.91,977.521C1233.64,966.532 1235.74,961.038 1238.21,961.038C1241.85,961.038 1244.55,973.814 1246.32,999.366Z" style="fill-rule:nonzero;"/>
                </g>
                <g transform="matrix(0.999465,-0.222617,0.00480144,0.999465,-28.8362,405.904)">
                    <path d="M1276.16,974.741L1276.16,1034.12C1274.66,1021.68 1273.32,1013.14 1272.13,1008.5C1270.96,1003.74 1269.59,1001.35 1268.02,1001.35C1265.55,1001.35 1263.5,1007.24 1261.87,1019.03C1260.23,1030.81 1259.41,1045.57 1259.41,1063.31C1259.41,1081.45 1260.2,1096.35 1261.78,1108C1263.37,1119.65 1265.4,1125.47 1267.87,1125.47C1269.45,1125.47 1270.84,1123.16 1272.04,1118.52C1273.21,1114.02 1274.58,1105.28 1276.16,1092.31L1276.16,1151.29C1273.49,1160.69 1270.83,1165.39 1268.16,1165.39C1263.77,1165.39 1260.1,1155.73 1257.14,1136.4C1254.18,1116.93 1252.71,1092.77 1252.71,1063.91C1252.71,1035.05 1254.2,1010.69 1257.2,990.827C1260.19,970.967 1263.87,961.038 1268.22,961.038C1271.02,961.038 1273.67,965.605 1276.16,974.741Z" style="fill-rule:nonzero;"/>
                </g>
                <g transform="matrix(1,0,0,1,-27.0337,108.274)">
                    <path d="M1303.4,959.501L1309.99,959.501L1309.99,1180.16L1303.4,1180.16L1303.45,1139.57C1300.75,1156.79 1297.85,1165.39 1294.74,1165.39C1290.81,1165.39 1287.56,1155.73 1284.99,1136.4C1282.45,1116.67 1281.17,1092.04 1281.17,1062.52C1281.17,1033.53 1282.45,1009.36 1284.99,990.032C1287.54,970.703 1290.73,961.038 1294.56,961.038C1297.87,961.038 1300.83,970.305 1303.45,988.841L1303.4,959.501ZM1287.88,1062.52C1287.88,1081.06 1288.61,1096.15 1290.07,1107.8C1291.57,1119.58 1293.45,1125.47 1295.73,1125.47C1298.16,1125.47 1300.12,1119.78 1301.62,1108.39C1303.12,1096.61 1303.86,1081.65 1303.86,1063.51C1303.86,1045.37 1303.12,1030.41 1301.62,1018.63C1300.12,1007.11 1298.18,1001.35 1295.79,1001.35C1293.53,1001.35 1291.64,1007.18 1290.13,1018.83C1288.63,1030.61 1287.88,1045.18 1287.88,1062.52Z" style="fill-rule:nonzero;"/>
                </g>
                <g transform="matrix(0.99982,0.129213,-0.00278688,0.99982,-26.1559,-114.785)">
                    <path d="M1325.57,1337.94L1319.01,1337.94L1318.33,966.4L1324.89,966.4L1324.89,987.451C1327.48,969.842 1330.41,961.038 1333.7,961.038C1337.61,961.038 1340.83,970.835 1343.35,990.43C1345.92,1009.89 1347.2,1034.45 1347.2,1064.11C1347.2,1093.1 1345.93,1117.27 1343.38,1136.6C1340.86,1155.79 1337.67,1165.39 1333.82,1165.39C1330.49,1165.39 1327.52,1156.32 1324.89,1138.18L1325.57,1337.94ZM1340.5,1064.31C1340.5,1045.77 1339.76,1030.68 1338.28,1019.03C1336.78,1007.24 1334.9,1001.35 1332.62,1001.35C1330.21,1001.35 1328.26,1007.05 1326.76,1018.43C1325.26,1029.82 1324.51,1044.78 1324.51,1063.31C1324.51,1081.45 1325.26,1096.41 1326.76,1108.2C1328.24,1119.71 1330.18,1125.47 1332.59,1125.47C1334.87,1125.47 1336.74,1119.65 1338.22,1108C1339.74,1096.35 1340.5,1081.78 1340.5,1064.31Z" style="fill-rule:nonzero;"/>
                </g>
                <g transform="matrix(1,0,0,1,-33.7641,134.681)">
                    <path d="M1380.02,1073.64L1359.66,1073.64C1359.83,1089.53 1360.59,1102.17 1361.93,1111.57C1363.27,1120.84 1365,1125.47 1367.1,1125.47C1368.73,1125.47 1370.08,1122.83 1371.15,1117.53C1372.2,1112.23 1373.39,1102.44 1374.74,1088.14L1380.28,1109.19C1379.42,1119.12 1378.52,1127.62 1377.57,1134.71C1376.61,1141.79 1375.59,1147.62 1374.5,1152.18C1373.41,1156.75 1372.24,1160.1 1370.97,1162.21C1369.71,1164.33 1368.34,1165.39 1366.86,1165.39C1362.62,1165.39 1359.22,1156.12 1356.65,1137.59C1354.09,1118.92 1352.8,1094.16 1352.8,1063.31C1352.8,1032.73 1354.05,1007.97 1356.54,989.039C1359.05,970.372 1362.37,961.038 1366.51,961.038C1370.69,961.038 1374,970.107 1376.43,988.245C1378.84,1006.25 1380.05,1031.21 1380.05,1063.12L1380.02,1073.64ZM1373.28,1037.1C1372.36,1013.27 1370.16,1001.35 1366.66,1001.35C1365.86,1001.35 1365.11,1002.18 1364.41,1003.84C1363.71,1005.49 1363.08,1007.87 1362.5,1010.98C1361.93,1014.1 1361.44,1017.84 1361.03,1022.21C1360.62,1026.57 1360.31,1031.54 1360.1,1037.1L1373.28,1037.1Z" style="fill-rule:nonzero;"/>
                </g>
            </g>
            <g transform="matrix(1,0,0,1,0,40.3445)">
                <g transform="matrix(1,0,0,1,-30.2968,140.241)">
                    <path d="M1406.88,1159.83L1406.88,853.201L1413.64,853.201C1416.66,853.201 1419.06,854.79 1420.85,857.967C1422.66,861.145 1424.18,866.507 1425.43,874.053C1426.69,881.865 1427.69,891.596 1428.43,903.247C1429.19,915.03 1429.57,926.946 1429.57,938.994C1429.57,960.971 1428.33,979.573 1425.86,994.799C1428.26,1000.36 1430.14,1010.09 1431.52,1023.99C1432.92,1037.76 1433.62,1053.78 1433.62,1072.05C1433.62,1096.02 1432.38,1116.27 1429.89,1132.82C1428.39,1143.02 1426.71,1150.1 1424.84,1154.07C1422.8,1157.91 1420.25,1159.83 1417.17,1159.83L1406.88,1159.83ZM1413.67,984.869L1415.8,984.869C1418.33,984.869 1420.18,981.063 1421.36,973.45C1422.53,965.837 1423.12,954.616 1423.12,939.788C1423.12,925.357 1422.52,914.401 1421.31,906.921C1420.11,899.44 1418.36,895.7 1416.06,895.7L1413.67,895.7L1413.67,984.869ZM1413.67,1116.34L1417.87,1116.34C1420.94,1116.34 1423.2,1112.23 1424.64,1104.03C1426.16,1095.15 1426.91,1083.9 1426.91,1070.27C1426.91,1057.03 1426.18,1045.9 1424.73,1036.9C1423.31,1028.03 1420.77,1023.6 1417.11,1023.6L1413.67,1023.6L1413.67,1116.34Z" style="fill-rule:nonzero;"/>
                </g>
                <g transform="matrix(1,0,0,1,-34.3079,107.873)">
                    <path d="M1439.6,1061.72C1439.6,1033.79 1441.07,1010.02 1444.01,990.43C1446.94,970.835 1450.52,961.038 1454.74,961.038C1458.98,961.038 1462.57,970.901 1465.53,990.628C1468.45,1010.36 1469.9,1034.58 1469.9,1063.31C1469.9,1092.31 1468.44,1116.6 1465.5,1136.2C1462.55,1155.66 1458.92,1165.39 1454.62,1165.39C1450.36,1165.39 1446.8,1155.46 1443.92,1135.6C1441.04,1116.01 1439.6,1091.38 1439.6,1061.72ZM1446.31,1062.52C1446.31,1081.85 1447.07,1097.14 1448.58,1108.39C1450.14,1119.78 1452.19,1125.47 1454.74,1125.47C1457.31,1125.47 1459.36,1119.85 1460.89,1108.59C1462.43,1097.34 1463.2,1082.31 1463.2,1063.51C1463.2,1044.71 1462.43,1029.68 1460.89,1018.43C1459.34,1007.05 1457.29,1001.35 1454.74,1001.35C1452.23,1001.35 1450.2,1007.05 1448.64,1018.43C1447.09,1029.82 1446.31,1044.51 1446.31,1062.52Z" style="fill-rule:nonzero;"/>
                </g>
                <g transform="matrix(1,0,0,1,-37.545,130.535)">
                    <path d="M1484.23,1055.17L1474.02,966.4L1481.83,966.4L1488.16,1022.8L1494.61,966.4L1502.66,966.4L1492.16,1055.17L1517.64,1297.63L1509.82,1297.63L1488.16,1087.54L1479.62,1159.83L1471.6,1159.83L1484.23,1055.17Z" style="fill-rule:nonzero;"/>
                </g>
            </g>
        </g>
    </g>
</svg>
